<svg width="127" height="35" viewBox="0 0 127 35" fill="none" xmlns="http://www.w3.org/2000/svg"><path fill-rule="evenodd" clip-rule="evenodd" d="M31.641 34.568h.315V.838h-.315v33.73zM8.098.99L6.325 4.06l2.314 4.297L.588 22.33l1.771 2.995h3.547l2.487-4.126 16.05.016 1.852-3.257-1.73-2.96h-4.68L11.644.99H8.098zm.387 3.074l.745-1.255h1.354l7.094 12.186-2.832.003-6.36-10.934zm-5.72 18.251l6.983-12.14 1.353 2.357-6.27 10.841-1.413.011-.654-1.069zm8.116-5.412h12.632l.713 1.104-.67 1.301H9.451l1.429-2.405zm34.842-7.74a6.67 6.67 0 012.627.518c.814.348 1.587.869 2.314 1.571l3.936.073.02 1.515v9.225h.87v3.276h-4.825v-1.686a6.883 6.883 0 01-2.258 1.554 6.845 6.845 0 01-2.684.534c-2.337 0-4.255-.78-5.752-2.338-1.497-1.56-2.246-3.543-2.246-5.952 0-2.344.76-4.31 2.28-5.903 1.52-1.591 3.425-2.387 5.718-2.387zm45.537.068c2.53 0 4.56.82 6.097 2.46 1.534 1.642 2.302 3.832 2.302 6.571v.394H86.585c.134 1.205.616 2.131 1.446 2.776.83.647 1.948.969 3.354.969.876 0 1.661-.146 2.359-.439.698-.291 1.235-.703 1.613-1.233h3.872c-.465 1.595-1.386 2.83-2.766 3.702-1.382.875-3.104 1.312-5.17 1.312-2.617 0-4.727-.76-6.328-2.278-1.601-1.519-2.401-3.512-2.401-5.978 0-2.412.814-4.39 2.442-5.937 1.63-1.546 3.714-2.32 6.254-2.32zm26.996-.068c.949 0 1.795.126 2.542.378.274.093.741.283 1.223.486l.263.111c.569.243 1.114.483 1.338.582l.08.035.028.013h1.932v3.743h-3.197c-.276-.824-.735-1.453-1.374-1.888-.639-.435-1.425-.652-2.349-.652-.75 0-1.349.155-1.797.462-.445.309-.668.704-.668 1.186 0 .913 1.013 1.556 3.044 1.929.098.01.175.022.232.033l1.804.317c1.88.342 3.27.912 4.167 1.708.896.796 1.345 1.856 1.345 3.181 0 1.438-.556 2.621-1.664 3.555-1.11.934-2.56 1.401-4.35 1.401-.904 0-1.78-.13-2.624-.39a10.458 10.458 0 01-2.526-1.181l-.032 1.17h-2.949V19.86h3.08c.396.96 1.003 1.689 1.818 2.191.815.5 1.814.751 2.993.751.706 0 1.275-.17 1.712-.511a1.62 1.62 0 00.653-1.335c0-.462-.166-.816-.497-1.064-.33-.246-1.082-.48-2.253-.7l-2.597-.432c-1.737-.309-3.023-.852-3.858-1.63-.836-.777-1.252-1.816-1.252-3.118 0-1.467.521-2.643 1.563-3.524 1.045-.883 2.435-1.325 4.17-1.325zM61.711.94v10.762c.93-.88 1.849-1.52 2.752-1.929a6.93 6.93 0 012.868-.61c1.663 0 2.896.447 3.7 1.339.803.894 1.206 2.276 1.206 4.151v7.413h.871v3.275h-4.826v-9.808c0-.852-.218-1.514-.65-1.985-.431-.47-1.041-.708-1.829-.708-.699 0-1.387.197-2.063.59-.676.394-1.35.996-2.029 1.805v6.831h.872v3.275h-4.827V4.216h-.872V.94h4.827zm18.48 0v21.126h.939v3.275h-5.897v-3.275h1.071V4.216h-1.038V.94h4.925zm30.54 8.164c.072 0 .186.004.347.016.131.01.242.014.313.014h.348v3.228h-1.132c-1.436 0-2.565.377-3.352 1.121-.795.75-1.18 1.78-1.18 3.152v5.721h1.011v2.955h-5.511v-2.955h1.013v-9.864h-1.013V9.538h4.5v1.587a5.336 5.336 0 011.516-1.304c.848-.476 1.905-.718 3.139-.718h.001zm-64.467 3.602c-1.33 0-2.416.443-3.256 1.328-.84.885-1.26 2.03-1.26 3.436 0 1.393.42 2.53 1.26 3.41.84.88 1.925 1.32 3.256 1.32 1.296 0 2.375-.446 3.238-1.336.863-.89 1.296-2.022 1.296-3.395 0-1.372-.436-2.507-1.303-3.41-.869-.902-1.946-1.353-3.231-1.353zm44.988-.134c-1.196 0-2.204.295-3.03.882-.824.588-1.37 1.408-1.637 2.46h9.185c-.32-1.096-.866-1.927-1.636-2.494-.77-.564-1.73-.849-2.882-.849v.001zM43.1 30.946c1.078 0 1.854.8 1.854 1.84 0 1.049-.776 1.834-1.854 1.834-1.084 0-1.865-.79-1.865-1.834 0-1.03.782-1.84 1.865-1.84zm59.793 0c1.078 0 1.854.8 1.854 1.84 0 1.049-.776 1.834-1.854 1.834-1.083 0-1.864-.79-1.864-1.834 0-1.03.781-1.84 1.864-1.84zm-63.712 0c.536 0 .858.133 1.093.326l-.184.28c-.25-.188-.48-.28-.9-.28-.469 0-.785.23-.785.602 0 .371.285.53.806.652.781.183 1.15.483 1.15 1.07 0 .661-.542 1.023-1.191 1.023-.5 0-.945-.127-1.266-.361l.194-.311c.265.203.648.341 1.057.341.5 0 .843-.245.843-.657 0-.397-.245-.616-.874-.754-.71-.158-1.083-.438-1.083-.993 0-.54.485-.938 1.14-.938zm85.799 0c.537 0 .858.133 1.093.326l-.184.28c-.25-.188-.48-.28-.899-.28-.469 0-.786.23-.786.602 0 .371.286.53.807.652.781.183 1.149.483 1.149 1.07 0 .661-.542 1.023-1.19 1.023-.501 0-.945-.127-1.267-.361l.194-.311c.265.203.649.341 1.057.341.501 0 .844-.245.844-.657 0-.397-.246-.616-.874-.754-.71-.158-1.083-.438-1.083-.993 0-.54.485-.938 1.139-.938zm-3.148 0c.659 0 1.032.235 1.164.326l-.178.29c-.098-.081-.409-.285-.94-.285-.935 0-1.563.607-1.563 1.503 0 .887.608 1.508 1.563 1.508.531 0 .827-.184.95-.265l.168.286c-.132.092-.505.31-1.164.31-1.129 0-1.885-.774-1.885-1.828 0-1.07.777-1.845 1.885-1.845zm-53.247 0c.536 0 .858.133 1.093.326l-.184.28c-.25-.188-.48-.28-.9-.28-.469 0-.786.23-.786.602 0 .371.286.53.807.652.782.183 1.15.483 1.15 1.07 0 .661-.542 1.023-1.19 1.023-.502 0-.946-.127-1.268-.361l.194-.311c.266.203.65.341 1.058.341.501 0 .843-.245.843-.657 0-.397-.246-.616-.874-.754-.71-.158-1.083-.438-1.083-.993 0-.54.486-.938 1.14-.938zm38.959 0c.659 0 1.032.235 1.165.326l-.169.29c-.103-.086-.424-.285-.961-.285-.863 0-1.568.632-1.568 1.514 0 .88.705 1.497 1.538 1.497.429 0 .761-.107.97-.21v-1.135h.368v1.314c-.23.133-.649.363-1.354.363-1.067 0-1.89-.775-1.89-1.83 0-1.054.823-1.844 1.901-1.844zm-57.98.046v2.155c0 .673.425 1.126 1.13 1.126.69 0 1.098-.453 1.098-1.126v-2.155h.357v2.13c0 .962-.582 1.497-1.465 1.497-.905 0-1.497-.54-1.497-1.497v-2.13h.378zm10.665-.046c1.078 0 1.854.8 1.854 1.84 0 1.049-.776 1.834-1.854 1.834-1.083 0-1.864-.79-1.864-1.834 0-1.03.781-1.84 1.864-1.84zm24.641 0c1.078 0 1.854.8 1.854 1.84 0 1.049-.776 1.834-1.854 1.834-1.083 0-1.864-.79-1.864-1.834 0-1.03.781-1.84 1.864-1.84zm27.912 0c.536 0 .858.133 1.093.326l-.184.28c-.25-.188-.48-.28-.899-.28-.469 0-.786.23-.786.602 0 .371.285.53.807.652.781.183 1.149.483 1.149 1.07 0 .661-.542 1.023-1.19 1.023-.501 0-.945-.127-1.267-.361l.194-.311c.265.203.649.341 1.057.341.501 0 .843-.245.843-.657 0-.397-.245-.616-.873-.754-.71-.158-1.083-.438-1.083-.993 0-.54.485-.938 1.139-.938zm-24.671.01l2.406 2.95v-2.913h.363v3.616h-.225l-2.412-2.939v2.903h-.362v-3.616h.23zm-24.646 0l2.405 2.95v-2.913h.363v3.616h-.224l-2.412-2.939v2.903h-.363v-3.616h.23zm10.26.036c.905 0 1.282.392 1.282.958 0 .357-.225.647-.526.79.388.127.634.448.634.814 0 .637-.45 1.02-1.262 1.02H72.56v-3.582h1.165zm6.087 0l1.104 1.814 1.113-1.814h.419l-1.364 2.17v1.411h-.362v-1.42l-1.35-2.16h.44v-.001zm-33.344 0v3.255h1.956v.326h-2.319v-3.581h.363zm10.742 0v3.581h-.363v-3.581h.363zm21.415 0v.326H76.67v1.274h1.71v.326h-1.71v1.33h1.956v.325h-2.319v-3.581h2.32zm19.94 0v3.255h1.957v.326h-2.319v-3.581h.363zm-42.67 0v.326H54.67v3.255h-.367v-3.255H53.05v-.326h2.846zm54.532 0v3.581h-.363v-3.581h.363zm7.04 0v.326h-1.225v3.255h-.368v-3.255h-1.252v-.326h2.845zm1.319 0v3.581h-.362v-3.581h.362zm-25.28 0c1.124 0 1.875.714 1.875 1.788 0 1.075-.751 1.793-1.875 1.793h-1.215v-3.581h1.215zm-50.406.285c-.853 0-1.497.663-1.497 1.508 0 .871.644 1.503 1.497 1.503.843 0 1.486-.627 1.486-1.502 0-.852-.643-1.509-1.486-1.509zm17.13 0c-.854 0-1.497.663-1.497 1.508 0 .871.643 1.503 1.496 1.503.843 0 1.487-.627 1.487-1.502 0-.852-.644-1.509-1.487-1.509zm24.64 0c-.853 0-1.496.663-1.496 1.508 0 .871.643 1.503 1.496 1.503.843 0 1.486-.627 1.486-1.502 0-.852-.642-1.509-1.486-1.509zm18.023 0c-.853 0-1.496.663-1.496 1.508 0 .871.643 1.503 1.496 1.503.844 0 1.487-.627 1.487-1.502 0-.852-.644-1.509-1.487-1.509zm-9.371.041h-.869v2.93h.87c.898 0 1.486-.587 1.486-1.462 0-.877-.588-1.468-1.487-1.468zm-19.644 1.6h-.955v1.33h.915c.556 0 .904-.265.904-.714 0-.315-.256-.616-.864-.616zm-.163-1.6h-.792v1.274h.955c.465 0 .752-.235.752-.601 0-.408-.281-.673-.915-.673z" fill="#E74214"/></svg>